<svg id="Group_344" data-name="Group 344" xmlns="http://www.w3.org/2000/svg" xmlns:xlink="http://www.w3.org/1999/xlink" width="321.611" height="312.994" viewBox="0 0 321.611 312.994">
  <defs>
    <clipPath id="clip-path">
      <rect id="Rectangle_189" data-name="Rectangle 189" width="321.611" height="312.994" fill="none"/>
    </clipPath>
  </defs>
  <g id="Group_343" data-name="Group 343" clip-path="url(#clip-path)">
    <path id="Path_225" data-name="Path 225" d="M31.006,91.661a15.238,15.238,0,0,0,12.7,3.416,19.712,19.712,0,0,0,9.548-4.188,23.267,23.267,0,0,0,3.15-3.038,20.086,20.086,0,0,0,5.318-13.49A14.863,14.863,0,0,0,56.408,62.45a15.213,15.213,0,0,0-12.7-3.409,20.546,20.546,0,0,0-12.7,7.219A20.454,20.454,0,0,0,25.8,77.694a18.326,18.326,0,0,0-.112,2.07,14.866,14.866,0,0,0,5.318,11.9" transform="translate(-7.667 -17.557)" fill="#fff"/>
    <path id="Path_226" data-name="Path 226" d="M77.349,188.492a4.477,4.477,0,0,0-1.179.345l5.682-.923c-.014-.033-.028-.059-.042-.092Z" transform="translate(-22.735 -56.06)" fill="#fff"/>
    <path id="Path_227" data-name="Path 227" d="M226.069,200.114a20.022,20.022,0,0,0,12.186-6.809,19.6,19.6,0,0,0,4.974-12.931,14.156,14.156,0,0,0-5.058-11.343,14.512,14.512,0,0,0-12.1-3.242,19.078,19.078,0,0,0-12.017,6.952,18.689,18.689,0,0,0-5.142,12.781,14.156,14.156,0,0,0,5.058,11.343,14.507,14.507,0,0,0,12.1,3.249" transform="translate(-62.354 -49.421)" fill="#fff"/>
    <path id="Path_228" data-name="Path 228" d="M162.6,204.571a14.5,14.5,0,0,0,12.094,3.251,20.022,20.022,0,0,0,12.186-6.809,19.61,19.61,0,0,0,4.981-12.933,14.158,14.158,0,0,0-5.065-11.342l-.084-.072a14.5,14.5,0,0,0-12.017-3.171,19.524,19.524,0,0,0-12.094,6.872,19.128,19.128,0,0,0-5.065,12.861c0,.077,0,.154.007.224a14.073,14.073,0,0,0,5.058,11.118" transform="translate(-47.018 -51.721)" fill="#fff"/>
    <path id="Path_229" data-name="Path 229" d="M287.584,5.334V50.629a6.711,6.711,0,0,1-1.712,4.547,6.865,6.865,0,0,1-4.293,2.363,5.109,5.109,0,0,1-4.286-1.081,4.959,4.959,0,0,1-1.719-4.026V7.2l-34.326,5.334V57.581a6.715,6.715,0,0,1-1.719,4.547,6.87,6.87,0,0,1-4.286,2.364,5.877,5.877,0,0,1-2.308-.071,4.523,4.523,0,0,1-1.985-1.01,4.974,4.974,0,0,1-1.712-4.025V14.4l-34.326,5.318V64.534a6.716,6.716,0,0,1-1.719,4.546,6.873,6.873,0,0,1-4.293,2.365l-2.575.384-3.164.471-.267.042-13.9,2.084a5.094,5.094,0,0,1-4.286-1.074,4.991,4.991,0,0,1-1.719-4.027V24.709L128.66,30.027V74.474a6.68,6.68,0,0,1-1.712,4.539,6.794,6.794,0,0,1-2.568,1.88,2.417,2.417,0,0,1-.239.1,7.516,7.516,0,0,1-1.3.358l-7.9,1.184a2.626,2.626,0,0,1-3.021-2.647c.222-11.194.838-47.377.838-47.377-3.1.478-33.289,5.12-34.326,5.331V67.773c0,4.411.617,9.323,0,13.7C76.322,96.53,60.44,97.38,48.713,99.162c-13.535,2.057-26.894,5.885-36.3,16.477A43.01,43.01,0,0,0,1.235,140.27,44.22,44.22,0,0,0,1,144.816v20.2a33.918,33.918,0,0,1,15.237-6.349,33.566,33.566,0,0,1,4.911-.371,28.777,28.777,0,0,1,14.178,3.654V139.667a4.453,4.453,0,0,1,.505-2.062,5.83,5.83,0,0,1,.779-1.136,5.268,5.268,0,0,1,1.824-1.4,4.475,4.475,0,0,1,1.179-.344l4.462-.673c.014.034.028.062.042.1l.926-.154,24.75-4.013a57.9,57.9,0,0,0,27.556-17.629s4.224-3.811,8.313-11.633v17.533l16.991-2.553a44.509,44.509,0,0,0,4.427-.892,39.767,39.767,0,0,0,6.517-2.265,36.661,36.661,0,0,0,4.918-2.651,38.83,38.83,0,0,0,7.31-6.075h0a25.706,25.706,0,0,0,7.759,4.04,33.831,33.831,0,0,0,15.406.891l14.171-2.126,5.739-.856a39.012,39.012,0,0,0,21.425-10.152q.894-.83,1.747-1.739h0q7.733,5.862,18.681,5.381a42.418,42.418,0,0,0,4.49-.443,38.045,38.045,0,0,0,23.171-12.058q8.913,7.25,23.164,5.106A45.851,45.851,0,0,0,310.152,76,45.9,45.9,0,0,0,321.91,45.479V0Z" transform="translate(-0.299)" fill="#fff"/>
    <path id="Path_230" data-name="Path 230" d="M282.2,364.616a14.5,14.5,0,0,0-12.1-3.247,19.089,19.089,0,0,0-12.014,6.951,18.71,18.71,0,0,0-5.148,12.786A14.153,14.153,0,0,0,258,392.445a14.5,14.5,0,0,0,12.1,3.247,20.036,20.036,0,0,0,12.186-6.8,19.619,19.619,0,0,0,4.977-12.933,14.154,14.154,0,0,0-5.063-11.34" transform="translate(-75.496 -107.796)" fill="#fff"/>
    <path id="Path_231" data-name="Path 231" d="M230.828,372.323a14.5,14.5,0,0,0-12.1-3.247,19.537,19.537,0,0,0-12.1,6.878,19.141,19.141,0,0,0-5.063,12.859,14.154,14.154,0,0,0,5.063,11.34,14.5,14.5,0,0,0,12.1,3.247,20.032,20.032,0,0,0,12.186-6.8,19.616,19.616,0,0,0,4.977-12.933,14.154,14.154,0,0,0-5.063-11.339" transform="translate(-60.162 -110.097)" fill="#fff"/>
    <path id="Path_232" data-name="Path 232" d="M318.7,254.445q0-20.593-15.188-32.13t-36.472-8.348l-41.362,6.209V254.5l39.475-5.921q19.225-2.883,19.222,12.9v1.375l-69,10.348-13.9,2.091a5.147,5.147,0,0,1-4.293-1.073,5.015,5.015,0,0,1-1.719-4.034v-45.48l-34.319,5.318v45.312a6.715,6.715,0,0,1-1.719,4.546,6.869,6.869,0,0,1-4.293,2.364l-13.554,2.034-3,.449-.435.063-1.712.26a3.61,3.61,0,0,1-3-.842,3.5,3.5,0,0,1-1.291-2.806v-3.95q0-17.847-12.613-28.657t-30.292-8.152A48.186,48.186,0,0,0,65.98,250.993a52.266,52.266,0,0,0-15.707,20.548l-5.318.8Q29.16,274.708,17.75,287.578T6.343,316.747v59.9L40.662,371.5V311.6a4.808,4.808,0,0,1,1.291-3.192,4.886,4.886,0,0,1,3-1.74L49.417,306a33.46,33.46,0,0,0,15.616,16.795q10.818,5.672,24.2,3.662a48.965,48.965,0,0,0,25.745-12.269h0q8.4,7.145,21.452,5.191l2.147-.323,16.556-2.483a38.9,38.9,0,0,0,23.171-11.89h0q9.271,7.029,23.171,4.939l17.335-2.6L318.867,292l-.168-34.3ZM95.325,288.728a9.771,9.771,0,0,1-6.089,3.4,6.886,6.886,0,0,1-6.005-1.677,6.717,6.717,0,0,1-2.575-5.619,10.412,10.412,0,0,1,8.58-9.871,7.258,7.258,0,0,1,8.58,7.3,9.576,9.576,0,0,1-2.49,6.468" transform="translate(-1.893 -63.657)" fill="#fff"/>
    <path id="Path_233" data-name="Path 233" d="M387.881,351.407a15.224,15.224,0,0,0-12.7-3.415,20.516,20.516,0,0,0-12.7,7.226,20.1,20.1,0,0,0-5.32,13.5,14.859,14.859,0,0,0,5.32,11.9,15.229,15.229,0,0,0,12.7,3.415,20.54,20.54,0,0,0,12.7-7.226,20.121,20.121,0,0,0,5.32-13.5,14.859,14.859,0,0,0-5.32-11.9" transform="translate(-106.602 -103.801)" fill="#fff"/>
    <path id="Path_234" data-name="Path 234" d="M18.022,281.907a20.533,20.533,0,0,0,12.7-7.222,20.1,20.1,0,0,0,5.318-13.5,14.854,14.854,0,0,0-5.318-11.907,15.2,15.2,0,0,0-12.7-3.413,20.53,20.53,0,0,0-12.7,7.224A20.132,20.132,0,0,0,0,266.6a14.873,14.873,0,0,0,5.318,11.9,15.252,15.252,0,0,0,12.7,3.412" transform="translate(0 -73.32)" fill="#fff"/>
  </g>
</svg>
